<?xml version="1.0" encoding="UTF-8"?>
<svg width="18px" height="20px" viewBox="0 0 18 20" version="1.1" xmlns="http://www.w3.org/2000/svg" xmlns:xlink="http://www.w3.org/1999/xlink">
    <title>39F90412-29C8-4150-BC38-1D718075E6D5</title>
    <defs>
        <path d="M4,9 L6,9 L6,11 L4,11 L4,9 Z M18,4 L18,18 C18,19.1 17.1,20 16,20 L2,20 C0.89,20 0,19.1 0,18 L0.01,4 C0.01,2.9 0.89,2 2,2 L3,2 L3,0 L5,0 L5,2 L13,2 L13,0 L15,0 L15,2 L16,2 C17.1,2 18,2.9 18,4 Z M2,6 L16,6 L16,4 L2,4 L2,6 Z M16,18 L16,8 L2,8 L2,18 L16,18 Z M12,11 L14,11 L14,9 L12,9 L12,11 Z M8,11 L10,11 L10,9 L8,9 L8,11 Z" id="path-1"></path>
    </defs>
    <g id="Design-System" stroke="none" stroke-width="1" fill="none" fill-rule="evenodd">
        <g id="Icons_Purple" transform="translate(-32.000000, -4428.000000)">
            <g id="date_grey" transform="translate(32.000000, 4428.000000)">
                <mask id="mask-2" fill="white">
                    <use xlink:href="#path-1"></use>
                </mask>
                <use id="date_purple" fill="#CBC6C6" xlink:href="#path-1"></use>
            </g>
        </g>
    </g>
</svg>