<?xml version="1.0" encoding="UTF-8"?>
<svg width="24px" height="24px" viewBox="0 0 24 24" version="1.1" xmlns="http://www.w3.org/2000/svg" xmlns:xlink="http://www.w3.org/1999/xlink">
    <title>4E00FCE5-E9DD-474E-B50F-F1706F5F1FEA</title>
    <g id="Design-System" stroke="none" stroke-width="1" fill="none" fill-rule="evenodd">
        <g id="Icons_Purple" transform="translate(-30.000000, -4467.000000)">
            <g id="day_shift_grey" transform="translate(30.000000, 4467.000000)">
                <circle id="Oval" stroke="#CCC6C6" stroke-width="2" fill-rule="nonzero" cx="11.8622208" cy="11.8622208" r="5.14285714"></circle>
                <g id="Group" fill="#CBC6C6">
                    <path d="M11.7766454,0 C11.2172399,0 10.7756298,0.441610149 10.7756298,1.00101559 L10.7756298,2.64975865 C10.7756298,3.20916409 11.2172399,3.65077424 11.7766454,3.65077424 C12.3360508,3.65077424 12.7776609,3.20916409 12.7776609,2.64975865 L12.7776609,1.00101559 C12.7776609,0.441610149 12.3360508,0 11.7766454,0 Z" id="Path"></path>
                    <path d="M11.7766454,19.9025654 C11.2172399,19.9025654 10.7756298,20.3441755 10.7756298,20.9035809 L10.7756298,22.552324 C10.7756298,23.1117294 11.2172399,23.5533396 11.7766454,23.5533396 C12.3360508,23.5533396 12.7776609,23.1117294 12.7776609,22.552324 L12.7776609,20.9035809 C12.7776609,20.3441755 12.3360508,19.9025654 11.7766454,19.9025654 Z" id="Path"></path>
                    <path d="M23.5532907,11.7766454 C23.5532907,11.2172399 23.1116806,10.7756298 22.5522751,10.7756298 L20.9035321,10.7756298 C20.3441266,10.7756298 19.9025165,11.2172399 19.9025165,11.7766454 C19.9025165,12.3360508 20.3441266,12.7776609 20.9035321,12.7776609 L22.5522751,12.7776609 C23.1116806,12.7776609 23.5532907,12.3360508 23.5532907,11.7766454 Z" id="Path"></path>
                    <path d="M3.65077424,11.7766454 C3.65077424,11.2172399 3.20916409,10.7756298 2.64975865,10.7756298 L1.00101559,10.7756298 C0.441610149,10.7756298 0,11.2172399 0,11.7766454 C0,12.3360508 0.441610149,12.7776609 1.00101559,12.7776609 L2.64975865,12.7776609 C3.20911521,12.7776609 3.65077424,12.3360508 3.65077424,11.7766454 Z" id="Path"></path>
                    <path d="M20.1086338,3.44465691 C19.7258724,3.06189553 19.0781938,3.06189553 18.6954324,3.44465691 L17.5177728,4.62231656 C17.1350114,5.00507794 17.1350114,5.65275653 17.5177728,6.03551792 C17.9005342,6.4182793 18.5482128,6.4182793 18.9309742,6.03551792 L20.1086338,4.85785827 C20.4913952,4.47514576 20.4913952,3.82741829 20.1086338,3.44465691 Z" id="Path"></path>
                    <path d="M6.03551792,17.5177728 C5.65275653,17.1350114 5.00507794,17.1350114 4.62231656,17.5177728 L3.44465691,18.6954324 C3.06189553,19.0781938 3.06189553,19.7258724 3.44465691,20.1086338 C3.82741829,20.4913952 4.47509689,20.4913952 4.85785827,20.1086338 L6.03551792,18.9309742 C6.4182793,18.5482128 6.4182793,17.9299586 6.03551792,17.5177728 Z" id="Path"></path>
                    <path d="M20.1086338,20.1086338 C20.4913952,19.7258724 20.4913952,19.0781938 20.1086338,18.6954324 L18.9309742,17.5177728 C18.5482128,17.1350114 17.9005342,17.1350114 17.5177728,17.5177728 C17.1350114,17.9005342 17.1350114,18.5482128 17.5177728,18.9309742 L18.6954324,20.1086338 C19.0781938,20.4913952 19.7258724,20.4913952 20.1086338,20.1086338 Z" id="Path"></path>
                    <path d="M6.03551792,6.03551792 C6.4182793,5.65275653 6.4182793,5.00507794 6.03551792,4.62231656 L4.85785827,3.44465691 C4.47509689,3.06189553 3.82741829,3.06189553 3.44465691,3.44465691 C3.06189553,3.82741829 3.06189553,4.47509689 3.44465691,4.85785827 L4.62231656,6.03551792 C5.00507794,6.4182793 5.62333215,6.4182793 6.03551792,6.03551792 Z" id="Path"></path>
                </g>
            </g>
        </g>
    </g>
</svg>
