<?xml version="1.0" encoding="UTF-8"?>
<svg width="22px" height="23px" viewBox="0 0 22 23" version="1.1" xmlns="http://www.w3.org/2000/svg" xmlns:xlink="http://www.w3.org/1999/xlink">
    <!-- Generator: sketchtool 61.2 (101010) - https://sketch.com -->
    <title>8BED1D3D-2F21-4962-A87E-F2217FC2C2E1</title>
    <desc>Created with sketchtool.</desc>
    <g id="Design-System" stroke="none" stroke-width="1" fill="none" fill-rule="evenodd">
        <g id="Icons_Purple" transform="translate(-17.000000, -2918.000000)" fill-rule="nonzero">
            <g id="night_shift" transform="translate(17.000000, 2918.000000)">
                <path d="M22.0455043,14.2029418 C20.585975,18.7494134 16.3274746,22.0417718 11.2961434,22.0417718 C5.05940256,22.0417718 0.00409536,16.9864387 0.00409536,10.7496979 C0.00409536,5.71839264 3.29645376,1.45986624 7.84292544,0.00036288 C6.37142112,1.75346208 5.48218368,4.01117184 5.48218368,6.47919648 C5.48218368,12.0489898 9.99687744,16.5644093 15.5666966,16.5644093 C18.0339696,16.5644093 20.2924051,15.6751459 22.0455043,14.2029418 Z" id="Path" fill="#28124C"/>
                <path d="M0.0033696,10.7496979 C0.0033696,16.9864387 5.0586768,22.0417718 11.2954176,22.0417718 C14.8940726,22.0417718 18.091849,20.3514768 20.158295,17.7281914 C18.2393597,19.2385238 15.8235638,20.1460867 13.1910768,20.1460867 C6.954336,20.1460867 1.8990288,15.0907795 1.8990288,8.85403872 C1.8990288,6.2215776 2.80664352,3.80578176 4.31695008,1.8868464 C1.69366464,3.95399232 0.0033696,7.1510688 0.0033696,10.7496979 Z" id="Path" fill="#1A0836"/>
                <g id="Group" transform="translate(7.879680, 3.628800)" fill="#1A0836">
                    <polygon id="Path" points="9.67790592 3.137616 12.2793149 3.51519264 10.3970822 5.3501472 10.8409882 7.9409808 8.51414976 6.71791968 6.18795936 7.9409808 6.63186528 5.3501472 4.74963264 3.51519264 7.35101568 3.137616 8.51414976 0.77969952"/>
                    <polygon id="Path" points="2.55615264 1.24760736 3.90482208 1.443096 2.92877856 2.39446368 3.15957024 3.73680864 1.95343488 3.10303872 0.74729952 3.73680864 0.97806528 2.39446368 0.00202176 1.443096 1.35071712 1.24760736 1.95343488 0.02524608"/>
                </g>
            </g>
        </g>
    </g>
</svg>