<?xml version="1.0" encoding="UTF-8"?>
<svg width="20px" height="19px" viewBox="0 0 20 19" version="1.1" xmlns="http://www.w3.org/2000/svg" xmlns:xlink="http://www.w3.org/1999/xlink">
    <!-- Generator: sketchtool 64 (101010) - https://sketch.com -->
    <title>1958D1D1-C55C-41FF-84FC-84A29DE0EF5B</title>
    <desc>Created with sketchtool.</desc>
    <g id="Design-System" stroke="none" stroke-width="1" fill="none" fill-rule="evenodd">
        <g id="Icons_Purple" transform="translate(-27.000000, -3981.000000)" fill="#5924B0" fill-rule="nonzero" stroke="#5924B0" stroke-width="0.5">
            <path d="M45.810989,3989.70282 C45.6260245,3989.33276 45.3176767,3989.03396 44.9358145,3988.85476 L30.7078764,3982.18324 C29.7706051,3981.74323 28.6427343,3982.12282 28.1886468,3983.03105 C27.9573123,3983.49381 27.9378656,3984.02962 28.1351316,3984.50697 L30.6092066,3990.49935 L28.1351316,3996.49233 C27.7497705,3997.43244 28.2238571,3998.49727 29.1940183,3998.87066 C29.4133828,3998.9551 29.6471482,3998.99896 29.883197,3999 C30.1687834,3999 30.4506866,3998.93754 30.7078764,3998.81727 L44.9357777,3992.14393 C45.8731226,3991.70402 46.2649659,3990.61109 45.810989,3989.70282 Z M30.1603859,3997.71906 C29.8479131,3997.86564 29.4719807,3997.73901 29.3207164,3997.43622 C29.2436295,3997.28197 29.2372209,3997.10338 29.3030008,3996.94427 L31.711701,3991.10843 L44.25879,3991.10843 L30.1603859,3997.71906 Z M31.7117378,3989.89023 L29.3030376,3984.05439 C29.2027841,3983.82176 29.2650282,3983.55312 29.4582796,3983.38438 C29.6453435,3983.20775 29.9277992,3983.16632 30.1603859,3983.28145 L44.25879,3989.89023 L31.7117378,3989.89023 Z" id="send_purple"/>
        </g>
    </g>
</svg>