<?xml version="1.0" encoding="UTF-8"?>
<svg width="16px" height="18px" viewBox="0 0 16 18" version="1.1" xmlns="http://www.w3.org/2000/svg" xmlns:xlink="http://www.w3.org/1999/xlink">
    <!-- Generator: sketchtool 64 (101010) - https://sketch.com -->
    <title>719E6E86-E07D-48F8-93CF-71AE30A5CD6A</title>
    <desc>Created with sketchtool.</desc>
    <defs>
        <path d="M29.3333333,1040.72289 C28.6577778,1040.72289 28.0533333,1040.99398 27.5911111,1041.41867 L21.2533333,1037.66867 C21.2977778,1037.46084 21.3333333,1037.25301 21.3333333,1037.03614 C21.3333333,1036.81928 21.2977778,1036.61145 21.2533333,1036.40361 L27.52,1032.68976 C28,1033.14157 28.6311111,1033.42169 29.3333333,1033.42169 C30.8088889,1033.42169 32,1032.21084 32,1030.71084 C32,1029.21084 30.8088889,1028 29.3333333,1028 C27.8577778,1028 26.6666667,1029.21084 26.6666667,1030.71084 C26.6666667,1030.92771 26.7022222,1031.13554 26.7466667,1031.34337 L20.48,1035.05723 C20,1034.60542 19.3688889,1034.3253 18.6666667,1034.3253 C17.1911111,1034.3253 16,1035.53614 16,1037.03614 C16,1038.53614 17.1911111,1039.74699 18.6666667,1039.74699 C19.3688889,1039.74699 20,1039.46687 20.48,1039.01506 L26.8088889,1042.7741 C26.7644444,1042.96386 26.7377778,1043.16265 26.7377778,1043.36145 C26.7377778,1044.81627 27.9022222,1046 29.3333333,1046 C30.7644444,1046 31.9288889,1044.81627 31.9288889,1043.36145 C31.9288889,1041.90663 30.7644444,1040.72289 29.3333333,1040.72289 Z M29.3333333,1029.80723 C29.8222222,1029.80723 30.2222222,1030.21386 30.2222222,1030.71084 C30.2222222,1031.20783 29.8222222,1031.61446 29.3333333,1031.61446 C28.8444444,1031.61446 28.4444444,1031.20783 28.4444444,1030.71084 C28.4444444,1030.21386 28.8444444,1029.80723 29.3333333,1029.80723 Z M18.6666667,1037.93976 C18.1777778,1037.93976 17.7777778,1037.53313 17.7777778,1037.03614 C17.7777778,1036.53916 18.1777778,1036.13253 18.6666667,1036.13253 C19.1555556,1036.13253 19.5555556,1036.53916 19.5555556,1037.03614 C19.5555556,1037.53313 19.1555556,1037.93976 18.6666667,1037.93976 Z M29.3333333,1044.28313 C28.8444444,1044.28313 28.4444444,1043.87651 28.4444444,1043.37952 C28.4444444,1042.88253 28.8444444,1042.4759 29.3333333,1042.4759 C29.8222222,1042.4759 30.2222222,1042.88253 30.2222222,1043.37952 C30.2222222,1043.87651 29.8222222,1044.28313 29.3333333,1044.28313 Z" id="path-1"/>
    </defs>
    <g id="Design-System" stroke="none" stroke-width="1" fill="none" fill-rule="evenodd">
        <g id="Icons_Purple" transform="translate(-16.000000, -1028.000000)">
            <mask id="mask-2" fill="white">
                <use xlink:href="#path-1"/>
            </mask>
            <use id="share_purple" fill="#5924B0" xlink:href="#path-1"/>
        </g>
    </g>
</svg>