<?xml version="1.0" encoding="UTF-8"?>
<svg width="28px" height="28px" viewBox="0 0 28 28" version="1.1" xmlns="http://www.w3.org/2000/svg" xmlns:xlink="http://www.w3.org/1999/xlink">
    <!-- Generator: sketchtool 61.2 (101010) - https://sketch.com -->
    <title>E1961424-D671-46A6-BCDF-38F3F4A2D737</title>
    <desc>Created with sketchtool.</desc>
    <g id="Design-System" stroke="none" stroke-width="1" fill="none" fill-rule="evenodd">
        <g id="Icons_Purple" transform="translate(-13.000000, -2873.000000)" fill-rule="nonzero">
            <g id="day_shift" transform="translate(13.000000, 2873.000000)">
                <circle id="Oval" fill="#FFEB99" cx="13.7394196" cy="13.7394196" r="7.90016198"/>
                <g id="Group">
                    <path d="M17.4834444,6.76669594 C17.8269569,7.86583354 18.0673701,9.03368506 18.1016986,10.235922 C18.3077833,15.0103705 15.0790274,19.2352216 10.8885047,21.0900983 C11.7815576,21.4336109 12.7433244,21.6396956 13.7394196,21.6396956 C18.1016986,21.6396956 21.6395816,18.1018126 21.6395816,13.7395336 C21.6395816,10.7167484 19.9565182,8.10624672 17.4834444,6.76669594 Z" id="Path" fill="#FFE784"/>
                    <path d="M13.7394196,0 C13.0867799,0 12.5715681,0.51521184 12.5715681,1.16785152 L12.5715681,3.09138509 C12.5715681,3.74402477 13.0867799,4.25923661 13.7394196,4.25923661 C14.3920593,4.25923661 14.9072711,3.74402477 14.9072711,3.09138509 L14.9072711,1.16785152 C14.9072711,0.51521184 14.3920593,0 13.7394196,0 Z" id="Path" fill="#FFEB99"/>
                    <path d="M13.7394196,23.2196596 C13.0867799,23.2196596 12.5715681,23.7348714 12.5715681,24.3875111 L12.5715681,26.3110447 C12.5715681,26.9636844 13.0867799,27.4788962 13.7394196,27.4788962 C14.3920593,27.4788962 14.9072711,26.9636844 14.9072711,26.3110447 L14.9072711,24.3875111 C14.9072711,23.7348714 14.3920593,23.2196596 13.7394196,23.2196596 Z" id="Path" fill="#FFEB99"/>
                    <path d="M27.4788392,13.7394196 C27.4788392,13.0867799 26.9636273,12.5715681 26.3109876,12.5715681 L24.3874541,12.5715681 C23.7348144,12.5715681 23.2196026,13.0867799 23.2196026,13.7394196 C23.2196026,14.3920593 23.7348144,14.9072711 24.3874541,14.9072711 L26.3109876,14.9072711 C26.9636273,14.9072711 27.4788392,14.3920593 27.4788392,13.7394196 Z" id="Path" fill="#FFEB99"/>
                    <path d="M4.25923661,13.7394196 C4.25923661,13.0867799 3.74402477,12.5715681 3.09138509,12.5715681 L1.16785152,12.5715681 C0.51521184,12.5715681 0,13.0867799 0,13.7394196 C0,14.3920593 0.51521184,14.9072711 1.16785152,14.9072711 L3.09138509,14.9072711 C3.74396774,14.9072711 4.25923661,14.3920593 4.25923661,13.7394196 Z" id="Path" fill="#FFEB99"/>
                    <path d="M23.4600728,4.0187664 C23.0135178,3.57221146 22.2578928,3.57221146 21.8113379,4.0187664 L20.4374016,5.39270266 C19.9908467,5.8392576 19.9908467,6.59488262 20.4374016,7.04143757 C20.8839565,7.48799251 21.6395816,7.48799251 22.0861365,7.04143757 L23.4600728,5.66750131 C23.9066277,5.22100339 23.9066277,4.46532134 23.4600728,4.0187664 Z" id="Path" fill="#FFEB99"/>
                    <path d="M7.04143757,20.4374016 C6.59488262,19.9908467 5.8392576,19.9908467 5.39270266,20.4374016 L4.0187664,21.8113379 C3.57221146,22.2578928 3.57221146,23.0135178 4.0187664,23.4600728 C4.46532134,23.9066277 5.22094637,23.9066277 5.66750131,23.4600728 L7.04143757,22.0861365 C7.48799251,21.6395816 7.48799251,20.918285 7.04143757,20.4374016 Z" id="Path" fill="#FFEB99"/>
                    <path d="M23.4600728,23.4600728 C23.9066277,23.0135178 23.9066277,22.2578928 23.4600728,21.8113379 L22.0861365,20.4374016 C21.6395816,19.9908467 20.8839565,19.9908467 20.4374016,20.4374016 C19.9908467,20.8839565 19.9908467,21.6395816 20.4374016,22.0861365 L21.8113379,23.4600728 C22.2578928,23.9066277 23.0135178,23.9066277 23.4600728,23.4600728 Z" id="Path" fill="#FFEB99"/>
                    <path d="M7.04143757,7.04143757 C7.48799251,6.59488262 7.48799251,5.8392576 7.04143757,5.39270266 L5.66750131,4.0187664 C5.22094637,3.57221146 4.46532134,3.57221146 4.0187664,4.0187664 C3.57221146,4.46532134 3.57221146,5.22094637 4.0187664,5.66750131 L5.39270266,7.04143757 C5.8392576,7.48799251 6.56055418,7.48799251 7.04143757,7.04143757 Z" id="Path" fill="#FFEB99"/>
                </g>
            </g>
        </g>
    </g>
</svg>