<?xml version="1.0" encoding="UTF-8"?>
<svg width="15px" height="23px" viewBox="0 0 15 23" version="1.1" xmlns="http://www.w3.org/2000/svg" xmlns:xlink="http://www.w3.org/1999/xlink">
    <!-- Generator: sketchtool 60.1 (101010) - https://sketch.com -->
    <title>921C85B7-B1B7-453D-963A-192DC0338A06</title>
    <desc>Created with sketchtool.</desc>
    <g id="Design-System" stroke="none" stroke-width="1" fill="none" fill-rule="evenodd">
        <g id="Icons_Purple" transform="translate(-23.000000, -3369.000000)" fill="#79CFF0">
            <g id="uops" transform="translate(23.000000, 3369.000000)">
                <path d="M7.5,1.03028697e-13 C6.26625645,1.03028697e-13 5.25,1.03883333 5.25,2.3 L3.75,2.3 C3.33580359,2.30004233 3.00004141,2.64326589 3,3.06666667 L3,3.83333333 L0.75,3.83333333 C0.335803593,3.83337567 -9.76996262e-15,4.17659923 -9.76996262e-15,4.6 L-9.76996262e-15,21.4666667 C-9.76996262e-15,21.8900674 0.335803593,22.2333333 0.75,22.2333333 L14.25,22.2333333 C14.6641964,22.2333333 15,21.8900674 15,21.4666667 L15,4.6 C15,4.17659923 14.6641964,3.83337567 14.25,3.83333333 L12,3.83333333 L12,3.06666667 C11.9999586,2.64326589 11.6641964,2.30004233 11.25,2.3 L9.75,2.3 C9.75,1.03883333 8.73374355,1.03028697e-13 7.5,1.03028697e-13 Z M7.5,1.53333333 C7.92311145,1.53333333 8.25,1.86744667 8.25,2.3 L8.25,3.06666667 C8.25004141,3.49006744 8.58580359,3.833291 9,3.83333333 L10.5,3.83333333 L10.5,5.36666667 L4.5,5.36666667 L4.5,3.83333333 L6,3.83333333 C6.41419641,3.833291 6.74995859,3.49006744 6.75,3.06666667 L6.75,2.3 C6.75,1.86744667 7.07688855,1.53333333 7.5,1.53333333 Z M1.5,5.36666667 L3,5.36666667 L3,6.13333333 C3.00004141,6.55673411 3.33580359,6.89995767 3.75,6.9 L11.25,6.9 C11.6641964,6.89995767 11.9999586,6.55673411 12,6.13333333 L12,5.36666667 L13.5,5.36666667 L13.5,20.7 L1.5,20.7 L1.5,5.36666667 Z M5.25,9.93372392 C4.83578644,9.93372392 4.5,10.2769723 4.5,10.7003906 C4.5,11.1238089 4.83578644,11.4670573 5.25,11.4670573 C5.66421356,11.4670573 6,11.1238089 6,10.7003906 C6,10.2769723 5.66421356,9.93372392 5.25,9.93372392 Z M9.75,9.93372392 C9.33578644,9.93372392 9,10.2769723 9,10.7003906 C9,11.1238089 9.33578644,11.4670573 9.75,11.4670573 C10.1642136,11.4670573 10.5,11.1238089 10.5,10.7003906 C10.5,10.2769723 10.1642136,9.93372392 9.75,9.93372392 Z M7.5,13.7670573 C6.90326279,13.7670573 6.3309664,14.0093781 5.90900953,14.4407119 C5.48705266,14.8720457 5.25,15.4570598 5.25,16.0670579 C5.25,17.3373128 6.25735931,18.3670579 7.5,18.3670579 C8.74264069,18.3670579 9.75,17.3373128 9.75,16.0670579 C9.75,15.4570598 9.51294734,14.8720457 9.09099047,14.4407119 C8.6690336,14.0093781 8.09673721,13.7670573 7.5,13.7670573 Z" id="Shape" fill-rule="nonzero"/>
                <path d="M14,6.44461317 L14,21.4446132 L1,21.4446132 C5.04418297,19.4389687 7.8079194,17.5501965 9.29120927,15.7782967 C10.7744991,14.0063969 12.3440961,10.895169 14,6.44461317 Z" id="Triangle" fill-opacity="0.35"/>
            </g>
        </g>
    </g>
</svg>