<?xml version="1.0" encoding="UTF-8"?>
<svg width="21px" height="21px" viewBox="0 0 21 21" version="1.1" xmlns="http://www.w3.org/2000/svg" xmlns:xlink="http://www.w3.org/1999/xlink">
    <!-- Generator: sketchtool 60.1 (101010) - https://sketch.com -->
    <title>252A3824-EB4C-4553-AF62-3A96AACF89A4</title>
    <desc>Created with sketchtool.</desc>
    <g id="Design-System" stroke="none" stroke-width="1" fill="none" fill-rule="evenodd">
        <g id="Icons_Purple" transform="translate(-17.000000, -2158.000000)">
            <g id="verification_check_blue" transform="translate(18.000000, 2159.000000)">
                <g id="verification_check_purple-copy">
                    <rect id="Rectangle" fill="#FFFFFF" x="3.83333333" y="3.83333333" width="10.7333333" height="9.96666667"/>
                    <g id="verification_check_purple" fill="#5924B0" stroke="#FFFFFF" stroke-width="1.6">
                        <path d="M18.0592594,10.4265125 C17.7527106,9.67025357 17.7527106,8.83223695 18.0592594,8.09641749 L18.1614423,7.85114433 C18.815413,6.29774768 18.0592594,4.49907787 16.506079,3.84501613 L16.2812765,3.74281898 C15.5251229,3.43622753 14.932462,2.84348408 14.6259132,2.08722518 L14.5441669,1.88283088 C13.8697596,0.329434233 12.0917767,-0.406385233 10.5181597,0.227237085 L10.3137939,0.308994803 C9.55764023,0.615586248 8.71974026,0.615586248 7.96358664,0.308994803 L7.77965738,0.227237085 C6.24691354,-0.406385233 4.4484941,0.349873663 3.79452339,1.90327031 L3.71277706,2.06678575 C3.40622829,2.82304465 2.81356734,3.4157881 2.05741371,3.72237955 L1.87348445,3.80413727 C0.340740611,4.45819901 -0.415413016,6.25686882 0.238557689,7.81026547 L0.320304027,7.99422034 C0.626852795,8.75047923 0.626852795,9.58849585 0.320304027,10.3243153 L0.238557689,10.549149 C-0.415413016,12.1025457 0.320304027,13.9012155 1.89392103,14.5348378 L2.09828688,14.6165955 C2.85444051,14.923187 3.44710146,15.5159304 3.75365023,16.2721893 L3.85583315,16.4970231 C4.48936727,18.0708591 6.28778671,18.8066786 7.84096713,18.1730563 L8.06576956,18.0708591 C8.82192319,17.7642677 9.65982315,17.7642677 10.4159768,18.0708591 L10.599906,18.1526169 C12.1530865,18.8066786 13.9515059,18.0504197 14.6054766,16.4970231 L14.6872229,16.3335076 C14.9937717,15.5772487 15.5864327,14.9845053 16.3425863,14.6779138 L16.506079,14.6165955 C18.079696,13.9625338 18.815413,12.1843034 18.1614423,10.6104673 L18.0592594,10.4265125 Z M8.38481013,13.0333333 L8.38481013,13.0333333 L4.6,9.80940171 L5.76455696,8.41367521 L8.17130802,10.4777778 L12.4219409,5.36666667 L13.8,6.54615385 L8.38481013,13.0333333 L8.38481013,13.0333333 Z" id="Shape"/>
                    </g>
                </g>
                <g id="verification_check_purple">
                    <rect id="Rectangle" fill="#FFFFFF" x="3.83333333" y="3.83333333" width="10.7333333" height="9.96666667"/>
                    <g fill="#79CFF0" id="Shape">
                        <path d="M18.0592594,10.4265125 C17.7527106,9.67025357 17.7527106,8.83223695 18.0592594,8.09641749 L18.1614423,7.85114433 C18.815413,6.29774768 18.0592594,4.49907787 16.506079,3.84501613 L16.2812765,3.74281898 C15.5251229,3.43622753 14.932462,2.84348408 14.6259132,2.08722518 L14.5441669,1.88283088 C13.8697596,0.329434233 12.0917767,-0.406385233 10.5181597,0.227237085 L10.3137939,0.308994803 C9.55764023,0.615586248 8.71974026,0.615586248 7.96358664,0.308994803 L7.77965738,0.227237085 C6.24691354,-0.406385233 4.4484941,0.349873663 3.79452339,1.90327031 L3.71277706,2.06678575 C3.40622829,2.82304465 2.81356734,3.4157881 2.05741371,3.72237955 L1.87348445,3.80413727 C0.340740611,4.45819901 -0.415413016,6.25686882 0.238557689,7.81026547 L0.320304027,7.99422034 C0.626852795,8.75047923 0.626852795,9.58849585 0.320304027,10.3243153 L0.238557689,10.549149 C-0.415413016,12.1025457 0.320304027,13.9012155 1.89392103,14.5348378 L2.09828688,14.6165955 C2.85444051,14.923187 3.44710146,15.5159304 3.75365023,16.2721893 L3.85583315,16.4970231 C4.48936727,18.0708591 6.28778671,18.8066786 7.84096713,18.1730563 L8.06576956,18.0708591 C8.82192319,17.7642677 9.65982315,17.7642677 10.4159768,18.0708591 L10.599906,18.1526169 C12.1530865,18.8066786 13.9515059,18.0504197 14.6054766,16.4970231 L14.6872229,16.3335076 C14.9937717,15.5772487 15.5864327,14.9845053 16.3425863,14.6779138 L16.506079,14.6165955 C18.079696,13.9625338 18.815413,12.1843034 18.1614423,10.6104673 L18.0592594,10.4265125 Z M8.38481013,13.0333333 L8.38481013,13.0333333 L4.6,9.80940171 L5.76455696,8.41367521 L8.17130802,10.4777778 L12.4219409,5.36666667 L13.8,6.54615385 L8.38481013,13.0333333 L8.38481013,13.0333333 Z"/>
                    </g>
                </g>
            </g>
        </g>
    </g>
</svg>